# MagicaVoxel @ Ephtracy

# group
o 

# material
mtllib Char13.mtl
usemtl palette

# normals
vn -1 0 0
vn 1 0 0
vn 0 0 1
vn 0 0 -1
vn 0 -1 0
vn 0 1 0

# texcoords
vt 0.0332031 0.5
vt 0.0605469 0.5
vt 0.0644531 0.5
vt 0.0839844 0.5
vt 0.107422 0.5
vt 0.205078 0.5

# verts
v -0.2 1.3 -0.2
v -0.2 1.3 -0.4
v -0.2 1.4 0.2
v -0.2 1.4 -0.2
v -0.2 1.4 -0.4
v -0.2 1.5 0.2
v -0.2 1.5 -0.2
v -0.1 0 0.2
v -0.1 0 0
v -0.1 0 -0.1
v -0.1 0 -0.3
v -0.1 0.1 0.2
v -0.1 0.1 0
v -0.1 0.1 -0.1
v -0.1 0.1 -0.3
v -0.1 0.3 0.3
v -0.1 0.3 0.1
v -0.1 0.3 -0.2
v -0.1 0.3 -0.4
v -0.1 0.4 0.2
v -0.1 0.4 0.1
v -0.1 0.4 -0.2
v -0.1 0.4 -0.3
v -0.1 0.5 0.2
v -0.1 0.5 0.1
v -0.1 0.5 0
v -0.1 0.5 -0.1
v -0.1 0.5 -0.2
v -0.1 0.5 -0.3
v -0.1 0.6 0.2
v -0.1 0.6 0.1
v -0.1 0.6 -0.2
v -0.1 0.6 -0.3
v -0.1 0.7 0.2
v -0.1 0.7 0.1
v -0.1 0.7 0
v -0.1 0.7 -0.1
v -0.1 0.7 -0.2
v -0.1 0.7 -0.3
v -0.1 0.8 0.2
v -0.1 0.8 0.1
v -0.1 0.8 -0.2
v -0.1 0.8 -0.3
v -0.1 0.9 0.3
v -0.1 0.9 0.2
v -0.1 0.9 0.1
v -0.1 0.9 0
v -0.1 0.9 -0.1
v -0.1 0.9 -0.2
v -0.1 0.9 -0.3
v -0.1 0.9 -0.4
v -0.1 1 0
v -0.1 1 -0.1
v -0.1 1.1 0.2
v -0.1 1.1 0.1
v -0.1 1.1 -0.2
v -0.1 1.1 -0.3
v -0.1 1.2 0.4
v -0.1 1.2 0.3
v -0.1 1.2 -0.4
v -0.1 1.2 -0.5
v -0.1 1.3 0.2
v -0.1 1.3 0.1
v -0.1 1.3 -0.2
v -0.1 1.3 -0.3
v -0.1 1.3 -0.4
v -0.1 1.4 0.4
v -0.1 1.4 0.3
v -0.1 1.4 0.2
v -0.1 1.4 -0.2
v -0.1 1.4 -0.4
v -0.1 1.4 -0.5
v -0.1 1.5 0.3
v -0.1 1.5 0.2
v -0.1 1.5 -0.2
v -0.1 1.5 -0.3
v -0.1 1.5 -0.4
v -0.1 1.6 0.2
v -0.1 1.6 0
v -0.1 1.6 -0.1
v -0.1 1.6 -0.3
v -0.1 1.7 0
v -0.1 1.7 -0.1
v 0 0.1 0.2
v 0 0.1 0
v 0 0.1 -0.1
v 0 0.1 -0.3
v 0 0.3 0.2
v 0 0.3 0.1
v 0 0.3 0
v 0 0.3 -0.1
v 0 0.3 -0.2
v 0 0.3 -0.3
v 0 0.4 0.4
v 0 0.4 0.3
v 0 0.4 0.1
v 0 0.4 -0.2
v 0 0.4 -0.4
v 0 0.4 -0.5
v 0 0.5 0.4
v 0 0.5 0.3
v 0 0.5 0.1
v 0 0.5 0
v 0 0.5 -0.1
v 0 0.5 -0.2
v 0 0.5 -0.4
v 0 0.5 -0.5
v 0 0.6 0.4
v 0 0.6 0.3
v 0 0.6 -0.4
v 0 0.6 -0.5
v 0 0.9 0.4
v 0 0.9 0.3
v 0 0.9 -0.4
v 0 0.9 -0.5
v 0 1.1 0.4
v 0 1.1 0.3
v 0 1.1 -0.4
v 0 1.1 -0.5
v 0 1.2 0.4
v 0 1.2 0.3
v 0 1.2 -0.4
v 0 1.2 -0.5
v 0.1 0.9 0.4
v 0.1 0.9 0.3
v 0.1 0.9 -0.4
v 0.1 0.9 -0.5
v 0.1 1.1 0.4
v 0.1 1.1 0.3
v 0.1 1.1 -0.4
v 0.1 1.1 -0.5
v 0.1 0.4 0.4
v 0.1 0.4 0.3
v 0.1 0.4 -0.4
v 0.1 0.4 -0.5
v 0.1 0.5 0.4
v 0.1 0.5 0.3
v 0.1 0.5 -0.4
v 0.1 0.5 -0.5
v 0.1 0.6 0.4
v 0.1 0.6 0.3
v 0.1 0.6 -0.4
v 0.1 0.6 -0.5
v 0.1 0.9 0.4
v 0.1 0.9 0.3
v 0.1 0.9 -0.4
v 0.1 0.9 -0.5
v 0.2 0 0.2
v 0.2 0 0
v 0.2 0 -0.1
v 0.2 0 -0.3
v 0.2 0.3 0.2
v 0.2 0.3 0
v 0.2 0.3 -0.1
v 0.2 0.3 -0.3
v 0.3 0.3 0.3
v 0.3 0.3 -0.4
v 0.3 0.9 0.4
v 0.3 0.9 0.3
v 0.3 0.9 -0.4
v 0.3 0.9 -0.5
v 0.3 1.4 0.4
v 0.3 1.4 0.3
v 0.3 1.4 -0.4
v 0.3 1.4 -0.5
v 0.3 1.5 0.3
v 0.3 1.5 0.2
v 0.3 1.5 -0.3
v 0.3 1.5 -0.4
v 0.3 1.6 0.2
v 0.3 1.6 0
v 0.3 1.6 -0.1
v 0.3 1.6 -0.3
v 0.3 1.7 0
v 0.3 1.7 -0.1
v 0.4 0.9 0.3
v 0.4 0.9 -0.4
v 0.4 1.4 0.3
v 0.4 1.4 -0.4
v -0.1 1.2 0.4
v -0.1 1.4 0.4
v 0 0.4 0.4
v 0 0.5 0.4
v 0 0.6 0.4
v 0 0.9 0.4
v 0 1.1 0.4
v 0 1.2 0.4
v 0.1 0.4 0.4
v 0.1 0.5 0.4
v 0.1 0.6 0.4
v 0.1 0.9 0.4
v 0.1 1.1 0.4
v 0.3 0.9 0.4
v 0.3 1.4 0.4
v -0.1 0.3 0.3
v -0.1 0.9 0.3
v -0.1 1.2 0.3
v -0.1 1.4 0.3
v -0.1 1.5 0.3
v 0 0.4 0.3
v 0 0.5 0.3
v 0 0.6 0.3
v 0 0.9 0.3
v 0 1.1 0.3
v 0 1.2 0.3
v 0.1 0.4 0.3
v 0.1 0.5 0.3
v 0.1 0.6 0.3
v 0.1 0.9 0.3
v 0.1 1.1 0.3
v 0.3 0.3 0.3
v 0.3 0.9 0.3
v 0.3 1.4 0.3
v 0.3 1.5 0.3
v 0.4 0.9 0.3
v 0.4 1.4 0.3
v -0.2 1.4 0.2
v -0.2 1.5 0.2
v -0.1 0 0.2
v -0.1 0.1 0.2
v -0.1 1.4 0.2
v -0.1 1.5 0.2
v -0.1 1.6 0.2
v 0 0.1 0.2
v 0 0.3 0.2
v 0.2 0 0.2
v 0.2 0.3 0.2
v 0.3 1.5 0.2
v 0.3 1.6 0.2
v -0.1 1.6 0
v -0.1 1.7 0
v 0.3 1.6 0
v 0.3 1.7 0
v -0.1 0 -0.1
v -0.1 0.1 -0.1
v 0 0.1 -0.1
v 0 0.3 -0.1
v 0.2 0 -0.1
v 0.2 0.3 -0.1
v -0.2 1.3 -0.2
v -0.2 1.4 -0.2
v -0.1 0.3 -0.2
v -0.1 0.4 -0.2
v -0.1 0.5 -0.2
v -0.1 1.3 -0.2
v -0.1 1.4 -0.2
v 0 0.3 -0.2
v 0 0.4 -0.2
v 0 0.5 -0.2
v -0.1 0.3 0.1
v -0.1 0.4 0.1
v -0.1 0.5 0.1
v 0 0.3 0.1
v 0 0.4 0.1
v 0 0.5 0.1
v -0.1 0 0
v -0.1 0.1 0
v 0 0.1 0
v 0 0.3 0
v 0.2 0 0
v 0.2 0.3 0
v -0.1 1.6 -0.1
v -0.1 1.7 -0.1
v 0.3 1.6 -0.1
v 0.3 1.7 -0.1
v -0.2 1.4 -0.2
v -0.2 1.5 -0.2
v -0.1 1.4 -0.2
v -0.1 1.5 -0.2
v -0.1 0 -0.3
v -0.1 0.1 -0.3
v -0.1 1.5 -0.3
v -0.1 1.6 -0.3
v 0 0.1 -0.3
v 0 0.3 -0.3
v 0.2 0 -0.3
v 0.2 0.3 -0.3
v 0.3 1.5 -0.3
v 0.3 1.6 -0.3
v -0.2 1.3 -0.4
v -0.2 1.4 -0.4
v -0.1 0.3 -0.4
v -0.1 0.9 -0.4
v -0.1 1.2 -0.4
v -0.1 1.3 -0.4
v -0.1 1.4 -0.4
v -0.1 1.5 -0.4
v 0 0.4 -0.4
v 0 0.5 -0.4
v 0 0.6 -0.4
v 0 0.9 -0.4
v 0 1.1 -0.4
v 0 1.2 -0.4
v 0.1 0.4 -0.4
v 0.1 0.5 -0.4
v 0.1 0.6 -0.4
v 0.1 0.9 -0.4
v 0.1 1.1 -0.4
v 0.3 0.3 -0.4
v 0.3 0.9 -0.4
v 0.3 1.4 -0.4
v 0.3 1.5 -0.4
v 0.4 0.9 -0.4
v 0.4 1.4 -0.4
v -0.1 1.2 -0.5
v -0.1 1.4 -0.5
v 0 0.4 -0.5
v 0 0.5 -0.5
v 0 0.6 -0.5
v 0 0.9 -0.5
v 0 1.1 -0.5
v 0 1.2 -0.5
v 0.1 0.4 -0.5
v 0.1 0.5 -0.5
v 0.1 0.6 -0.5
v 0.1 0.9 -0.5
v 0.1 1.1 -0.5
v 0.3 0.9 -0.5
v 0.3 1.4 -0.5
v -0.1 0 0.2
v 0.2 0 0.2
v -0.1 0 0
v 0.2 0 0
v -0.1 0 -0.1
v 0.2 0 -0.1
v -0.1 0 -0.3
v 0.2 0 -0.3
v -0.1 0.3 0.3
v 0.3 0.3 0.3
v 0 0.3 0.2
v 0.2 0.3 0.2
v -0.1 0.3 0.1
v 0 0.3 0.1
v 0 0.3 0
v 0.2 0.3 0
v 0 0.3 -0.1
v 0.2 0.3 -0.1
v -0.1 0.3 -0.2
v 0 0.3 -0.2
v 0 0.3 -0.3
v 0.2 0.3 -0.3
v -0.1 0.3 -0.4
v 0.3 0.3 -0.4
v 0 0.4 0.4
v 0.1 0.4 0.4
v 0 0.4 0.3
v 0.1 0.4 0.3
v 0 0.4 -0.4
v 0.1 0.4 -0.4
v 0 0.4 -0.5
v 0.1 0.4 -0.5
v -0.1 0.5 0.1
v 0 0.5 0.1
v -0.1 0.5 0
v 0 0.5 0
v -0.1 0.5 -0.1
v 0 0.5 -0.1
v -0.1 0.5 -0.2
v 0 0.5 -0.2
v 0.1 0.9 0.4
v 0.3 0.9 0.4
v 0.1 0.9 0.3
v 0.3 0.9 0.3
v 0.4 0.9 0.3
v 0.1 0.9 -0.4
v 0.3 0.9 -0.4
v 0.4 0.9 -0.4
v 0.1 0.9 -0.5
v 0.3 0.9 -0.5
v 0 1.1 0.4
v 0.1 1.1 0.4
v 0 1.1 0.3
v 0.1 1.1 0.3
v 0 1.1 -0.4
v 0.1 1.1 -0.4
v 0 1.1 -0.5
v 0.1 1.1 -0.5
v -0.1 1.2 0.4
v 0 1.2 0.4
v -0.1 1.2 0.3
v 0 1.2 0.3
v -0.1 1.2 -0.4
v 0 1.2 -0.4
v -0.1 1.2 -0.5
v 0 1.2 -0.5
v -0.2 1.3 -0.2
v -0.1 1.3 -0.2
v -0.1 1.3 -0.3
v -0.2 1.3 -0.4
v -0.1 1.3 -0.4
v -0.2 1.4 0.2
v -0.1 1.4 0.2
v -0.2 1.4 -0.2
v -0.1 1.4 -0.2
v -0.1 0.1 0.2
v 0 0.1 0.2
v -0.1 0.1 0
v 0 0.1 0
v -0.1 0.1 -0.1
v 0 0.1 -0.1
v -0.1 0.1 -0.3
v 0 0.1 -0.3
v 0 0.9 0.4
v 0.1 0.9 0.4
v 0 0.9 0.3
v 0.1 0.9 0.3
v 0 0.9 -0.4
v 0.1 0.9 -0.4
v 0 0.9 -0.5
v 0.1 0.9 -0.5
v -0.1 1.4 0.4
v 0.3 1.4 0.4
v -0.1 1.4 0.3
v 0.3 1.4 0.3
v 0.4 1.4 0.3
v -0.2 1.4 -0.2
v -0.1 1.4 -0.2
v -0.2 1.4 -0.4
v -0.1 1.4 -0.4
v 0.3 1.4 -0.4
v 0.4 1.4 -0.4
v -0.1 1.4 -0.5
v 0.3 1.4 -0.5
v -0.1 1.5 0.3
v 0.3 1.5 0.3
v -0.2 1.5 0.2
v -0.1 1.5 0.2
v 0.3 1.5 0.2
v -0.2 1.5 -0.2
v -0.1 1.5 -0.2
v -0.1 1.5 -0.3
v 0.3 1.5 -0.3
v -0.1 1.5 -0.4
v 0.3 1.5 -0.4
v -0.1 1.6 0.2
v 0.3 1.6 0.2
v -0.1 1.6 0
v 0.3 1.6 0
v -0.1 1.6 -0.1
v 0.3 1.6 -0.1
v -0.1 1.6 -0.3
v 0.3 1.6 -0.3
v -0.1 1.7 0
v 0.3 1.7 0
v -0.1 1.7 -0.1
v 0.3 1.7 -0.1

# faces
f 4/3/1 2/3/1 1/3/1
f 5/3/1 2/3/1 4/3/1
f 6/3/1 4/3/1 3/3/1
f 7/3/1 4/3/1 6/3/1
f 12/2/1 9/2/1 8/2/1
f 13/2/1 9/2/1 12/2/1
f 14/2/1 11/2/1 10/2/1
f 15/2/1 11/2/1 14/2/1
f 20/6/1 17/6/1 16/6/1
f 21/6/1 17/6/1 20/6/1
f 22/6/1 19/6/1 18/6/1
f 23/6/1 19/6/1 22/6/1
f 24/1/1 21/1/1 20/1/1
f 24/6/1 20/6/1 16/6/1
f 25/1/1 21/1/1 24/1/1
f 28/1/1 23/1/1 22/1/1
f 29/6/1 19/6/1 23/6/1
f 29/1/1 23/1/1 28/1/1
f 30/6/1 24/6/1 16/6/1
f 30/6/1 25/6/1 24/6/1
f 30/6/1 26/6/1 25/6/1
f 31/6/1 26/6/1 30/6/1
f 32/6/1 28/6/1 27/6/1
f 32/6/1 29/6/1 28/6/1
f 33/6/1 19/6/1 29/6/1
f 33/6/1 29/6/1 32/6/1
f 34/1/1 31/1/1 30/1/1
f 34/6/1 30/6/1 16/6/1
f 35/6/1 26/6/1 31/6/1
f 35/1/1 31/1/1 34/1/1
f 36/1/1 27/1/1 26/1/1
f 36/6/1 26/6/1 35/6/1
f 37/6/1 32/6/1 27/6/1
f 37/1/1 27/1/1 36/1/1
f 38/1/1 33/1/1 32/1/1
f 38/6/1 32/6/1 37/6/1
f 39/6/1 19/6/1 33/6/1
f 39/1/1 33/1/1 38/1/1
f 40/6/1 34/6/1 16/6/1
f 40/6/1 35/6/1 34/6/1
f 41/1/1 36/1/1 35/1/1
f 41/6/1 35/6/1 40/6/1
f 41/1/1 38/1/1 37/1/1
f 41/1/1 37/1/1 36/1/1
f 42/6/1 39/6/1 38/6/1
f 42/1/1 38/1/1 41/1/1
f 43/6/1 19/6/1 39/6/1
f 43/6/1 39/6/1 42/6/1
f 44/6/1 40/6/1 16/6/1
f 45/1/1 42/1/1 41/1/1
f 45/6/1 40/6/1 44/6/1
f 45/1/1 41/1/1 40/1/1
f 45/1/1 43/1/1 42/1/1
f 46/1/1 43/1/1 45/1/1
f 47/1/1 43/1/1 46/1/1
f 48/1/1 43/1/1 47/1/1
f 49/1/1 43/1/1 48/1/1
f 50/6/1 19/6/1 43/6/1
f 50/1/1 43/1/1 49/1/1
f 51/6/1 19/6/1 50/6/1
f 52/5/1 47/5/1 46/5/1
f 52/4/1 48/4/1 47/4/1
f 53/5/1 49/5/1 48/5/1
f 53/4/1 48/4/1 52/4/1
f 54/4/1 45/4/1 44/4/1
f 54/4/1 46/4/1 45/4/1
f 55/5/1 52/5/1 46/5/1
f 55/4/1 46/4/1 54/4/1
f 55/5/1 53/5/1 52/5/1
f 56/5/1 49/5/1 53/5/1
f 56/5/1 53/5/1 55/5/1
f 56/4/1 50/4/1 49/4/1
f 56/4/1 51/4/1 50/4/1
f 57/4/1 51/4/1 56/4/1
f 59/4/1 54/4/1 44/4/1
f 60/4/1 51/4/1 57/4/1
f 62/2/1 55/2/1 54/2/1
f 62/4/1 54/4/1 59/4/1
f 63/4/1 56/4/1 55/4/1
f 63/2/1 55/2/1 62/2/1
f 64/2/1 57/2/1 56/2/1
f 64/4/1 56/4/1 63/4/1
f 65/4/1 60/4/1 57/4/1
f 65/2/1 57/2/1 64/2/1
f 66/3/1 61/3/1 60/3/1
f 66/4/1 60/4/1 65/4/1
f 67/3/1 59/3/1 58/3/1
f 68/4/1 64/4/1 63/4/1
f 68/3/1 59/3/1 67/3/1
f 68/4/1 62/4/1 59/4/1
f 68/4/1 63/4/1 62/4/1
f 69/4/1 64/4/1 68/4/1
f 70/4/1 64/4/1 69/4/1
f 71/3/1 61/3/1 66/3/1
f 72/3/1 61/3/1 71/3/1
f 73/3/1 69/3/1 68/3/1
f 74/3/1 69/3/1 73/3/1
f 75/3/1 71/3/1 70/3/1
f 76/3/1 71/3/1 75/3/1
f 77/3/1 71/3/1 76/3/1
f 78/3/1 75/3/1 74/3/1
f 78/3/1 76/3/1 75/3/1
f 79/3/1 76/3/1 78/3/1
f 80/3/1 76/3/1 79/3/1
f 81/3/1 76/3/1 80/3/1
f 82/3/1 80/3/1 79/3/1
f 83/3/1 80/3/1 82/3/1
f 88/2/1 85/2/1 84/2/1
f 89/2/1 85/2/1 88/2/1
f 90/2/1 85/2/1 89/2/1
f 91/2/1 87/2/1 86/2/1
f 92/2/1 87/2/1 91/2/1
f 93/2/1 87/2/1 92/2/1
f 96/6/1 90/6/1 89/6/1
f 96/6/1 91/6/1 90/6/1
f 96/6/1 92/6/1 91/6/1
f 97/6/1 92/6/1 96/6/1
f 100/4/1 95/4/1 94/4/1
f 101/4/1 95/4/1 100/4/1
f 102/6/1 97/6/1 96/6/1
f 103/6/1 97/6/1 102/6/1
f 104/6/1 97/6/1 103/6/1
f 105/6/1 97/6/1 104/6/1
f 106/4/1 99/4/1 98/4/1
f 107/4/1 99/4/1 106/4/1
f 108/1/1 101/1/1 100/1/1
f 109/1/1 101/1/1 108/1/1
f 110/1/1 107/1/1 106/1/1
f 111/1/1 107/1/1 110/1/1
f 112/6/1 109/6/1 108/6/1
f 113/6/1 109/6/1 112/6/1
f 114/6/1 111/6/1 110/6/1
f 115/6/1 111/6/1 114/6/1
f 120/3/1 117/3/1 116/3/1
f 121/3/1 117/3/1 120/3/1
f 122/3/1 119/3/1 118/3/1
f 123/3/1 119/3/1 122/3/1
f 128/3/1 125/3/1 124/3/1
f 129/3/1 125/3/1 128/3/1
f 130/3/1 127/3/1 126/3/1
f 131/3/1 127/3/1 130/3/1
f 132/4/2 133/4/2 136/4/2
f 136/4/2 133/4/2 137/4/2
f 134/4/2 135/4/2 138/4/2
f 138/4/2 135/4/2 139/4/2
f 136/1/2 137/1/2 140/1/2
f 140/1/2 137/1/2 141/1/2
f 138/1/2 139/1/2 142/1/2
f 142/1/2 139/1/2 143/1/2
f 140/6/2 141/6/2 144/6/2
f 144/6/2 141/6/2 145/6/2
f 142/6/2 143/6/2 146/6/2
f 146/6/2 143/6/2 147/6/2
f 148/2/2 149/2/2 152/2/2
f 152/2/2 149/2/2 153/2/2
f 150/2/2 151/2/2 154/2/2
f 154/2/2 151/2/2 155/2/2
f 156/6/2 157/6/2 159/6/2
f 159/6/2 157/6/2 160/6/2
f 158/3/2 159/3/2 162/3/2
f 162/3/2 159/3/2 163/3/2
f 160/3/2 161/3/2 164/3/2
f 164/3/2 161/3/2 165/3/2
f 163/3/2 164/3/2 166/3/2
f 166/3/2 164/3/2 167/3/2
f 167/3/2 164/3/2 168/3/2
f 168/3/2 164/3/2 169/3/2
f 167/3/2 168/3/2 170/3/2
f 170/3/2 168/3/2 171/3/2
f 171/3/2 168/3/2 172/3/2
f 172/3/2 168/3/2 173/3/2
f 171/3/2 172/3/2 174/3/2
f 174/3/2 172/3/2 175/3/2
f 176/3/2 177/3/2 178/3/2
f 178/3/2 177/3/2 179/3/2
f 187/3/3 181/3/3 180/3/3
f 188/4/3 183/4/3 182/4/3
f 189/1/3 184/1/3 183/1/3
f 189/4/3 183/4/3 188/4/3
f 190/6/3 185/6/3 184/6/3
f 190/1/3 184/1/3 189/1/3
f 191/6/3 185/6/3 190/6/3
f 192/3/3 187/3/3 186/3/3
f 193/3/3 192/3/3 191/3/3
f 194/3/3 187/3/3 192/3/3
f 194/3/3 192/3/3 193/3/3
f 194/3/3 181/3/3 187/3/3
f 200/6/3 196/6/3 195/6/3
f 201/6/3 196/6/3 200/6/3
f 202/6/3 196/6/3 201/6/3
f 203/4/3 197/4/3 196/4/3
f 203/6/3 196/6/3 202/6/3
f 204/4/3 197/4/3 203/4/3
f 205/4/3 197/4/3 204/4/3
f 206/6/3 200/6/3 195/6/3
f 209/4/3 204/4/3 203/4/3
f 210/4/3 204/4/3 209/4/3
f 211/6/3 208/6/3 207/6/3
f 211/6/3 206/6/3 195/6/3
f 211/6/3 209/6/3 208/6/3
f 211/6/3 207/6/3 206/6/3
f 212/6/3 209/6/3 211/6/3
f 213/3/3 199/3/3 198/3/3
f 214/3/3 199/3/3 213/3/3
f 215/3/3 213/3/3 212/3/3
f 216/3/3 213/3/3 215/3/3
f 221/3/3 218/3/3 217/3/3
f 222/3/3 218/3/3 221/3/3
f 224/2/3 220/2/3 219/2/3
f 226/2/3 224/2/3 219/2/3
f 226/2/3 225/2/3 224/2/3
f 227/2/3 225/2/3 226/2/3
f 228/3/3 223/3/3 222/3/3
f 229/3/3 223/3/3 228/3/3
f 232/3/3 231/3/3 230/3/3
f 233/3/3 231/3/3 232/3/3
f 236/2/3 235/2/3 234/2/3
f 238/2/3 236/2/3 234/2/3
f 238/2/3 237/2/3 236/2/3
f 239/2/3 237/2/3 238/2/3
f 245/3/3 241/3/3 240/3/3
f 246/3/3 241/3/3 245/3/3
f 247/6/3 243/6/3 242/6/3
f 248/1/3 244/1/3 243/1/3
f 248/6/3 243/6/3 247/6/3
f 249/1/3 244/1/3 248/1/3
f 250/6/4 251/6/4 253/6/4
f 251/1/4 252/1/4 254/1/4
f 253/6/4 251/6/4 254/6/4
f 254/1/4 252/1/4 255/1/4
f 256/2/4 257/2/4 258/2/4
f 256/2/4 258/2/4 260/2/4
f 258/2/4 259/2/4 260/2/4
f 260/2/4 259/2/4 261/2/4
f 262/3/4 263/3/4 264/3/4
f 264/3/4 263/3/4 265/3/4
f 266/3/4 267/3/4 268/3/4
f 268/3/4 267/3/4 269/3/4
f 270/2/4 271/2/4 274/2/4
f 270/2/4 274/2/4 276/2/4
f 274/2/4 275/2/4 276/2/4
f 276/2/4 275/2/4 277/2/4
f 272/3/4 273/3/4 278/3/4
f 278/3/4 273/3/4 279/3/4
f 280/3/4 281/3/4 285/3/4
f 285/3/4 281/3/4 286/3/4
f 282/6/4 283/6/4 288/6/4
f 288/6/4 283/6/4 289/6/4
f 289/6/4 283/6/4 290/6/4
f 283/4/4 284/4/4 291/4/4
f 290/6/4 283/6/4 291/6/4
f 291/4/4 284/4/4 292/4/4
f 292/4/4 284/4/4 293/4/4
f 282/6/4 288/6/4 294/6/4
f 291/4/4 292/4/4 297/4/4
f 297/4/4 292/4/4 298/4/4
f 295/6/4 296/6/4 299/6/4
f 282/6/4 294/6/4 299/6/4
f 296/6/4 297/6/4 299/6/4
f 294/6/4 295/6/4 299/6/4
f 299/6/4 297/6/4 300/6/4
f 286/3/4 287/3/4 301/3/4
f 301/3/4 287/3/4 302/3/4
f 300/3/4 301/3/4 303/3/4
f 303/3/4 301/3/4 304/3/4
f 305/3/4 306/3/4 312/3/4
f 307/4/4 308/4/4 313/4/4
f 308/1/4 309/1/4 314/1/4
f 313/4/4 308/4/4 314/4/4
f 309/6/4 310/6/4 315/6/4
f 314/1/4 309/1/4 315/1/4
f 315/6/4 310/6/4 316/6/4
f 311/3/4 312/3/4 317/3/4
f 316/3/4 317/3/4 318/3/4
f 317/3/4 312/3/4 319/3/4
f 318/3/4 317/3/4 319/3/4
f 312/3/4 306/3/4 319/3/4
f 322/2/5 321/2/5 320/2/5
f 323/2/5 321/2/5 322/2/5
f 326/2/5 325/2/5 324/2/5
f 327/2/5 325/2/5 326/2/5
f 330/6/5 329/6/5 328/6/5
f 331/6/5 329/6/5 330/6/5
f 332/6/5 330/6/5 328/6/5
f 333/6/5 330/6/5 332/6/5
f 335/6/5 329/6/5 331/6/5
f 336/6/5 335/6/5 334/6/5
f 337/6/5 329/6/5 335/6/5
f 337/6/5 335/6/5 336/6/5
f 340/6/5 339/6/5 338/6/5
f 341/6/5 329/6/5 337/6/5
f 342/6/5 340/6/5 338/6/5
f 342/6/5 341/6/5 340/6/5
f 343/6/5 329/6/5 341/6/5
f 343/6/5 341/6/5 342/6/5
f 346/4/5 345/4/5 344/4/5
f 347/4/5 345/4/5 346/4/5
f 350/4/5 349/4/5 348/4/5
f 351/4/5 349/4/5 350/4/5
f 354/6/5 353/6/5 352/6/5
f 355/6/5 353/6/5 354/6/5
f 356/1/5 355/1/5 354/1/5
f 357/1/5 355/1/5 356/1/5
f 358/6/5 357/6/5 356/6/5
f 359/6/5 357/6/5 358/6/5
f 362/3/5 361/3/5 360/3/5
f 363/3/5 361/3/5 362/3/5
f 366/3/5 364/3/5 363/3/5
f 367/3/5 364/3/5 366/3/5
f 368/3/5 366/3/5 365/3/5
f 369/3/5 366/3/5 368/3/5
f 372/3/5 371/3/5 370/3/5
f 373/3/5 371/3/5 372/3/5
f 376/3/5 375/3/5 374/3/5
f 377/3/5 375/3/5 376/3/5
f 380/3/5 379/3/5 378/3/5
f 381/3/5 379/3/5 380/3/5
f 384/3/5 383/3/5 382/3/5
f 385/3/5 383/3/5 384/3/5
f 388/3/5 387/3/5 386/3/5
f 389/3/5 388/3/5 386/3/5
f 390/3/5 388/3/5 389/3/5
f 393/3/5 392/3/5 391/3/5
f 394/3/5 392/3/5 393/3/5
f 395/2/6 396/2/6 397/2/6
f 397/2/6 396/2/6 398/2/6
f 399/2/6 400/2/6 401/2/6
f 401/2/6 400/2/6 402/2/6
f 403/6/6 404/6/6 405/6/6
f 405/6/6 404/6/6 406/6/6
f 407/6/6 408/6/6 409/6/6
f 409/6/6 408/6/6 410/6/6
f 411/3/6 412/3/6 413/3/6
f 413/3/6 412/3/6 414/3/6
f 416/3/6 417/3/6 418/3/6
f 418/3/6 417/3/6 419/3/6
f 414/3/6 415/3/6 420/3/6
f 420/3/6 415/3/6 421/3/6
f 419/3/6 420/3/6 422/3/6
f 422/3/6 420/3/6 423/3/6
f 424/3/6 425/3/6 427/3/6
f 427/3/6 425/3/6 428/3/6
f 426/3/6 427/3/6 429/3/6
f 429/3/6 427/3/6 430/3/6
f 431/3/6 432/3/6 433/3/6
f 433/3/6 432/3/6 434/3/6
f 435/3/6 436/3/6 437/3/6
f 437/3/6 436/3/6 438/3/6
f 439/3/6 440/3/6 441/3/6
f 441/3/6 440/3/6 442/3/6
f 443/3/6 444/3/6 445/3/6
f 445/3/6 444/3/6 446/3/6
