# MagicaVoxel @ Ephtracy

# group
o 

# material
mtllib Char05.mtl
usemtl palette

# normals
vn -1 0 0
vn 1 0 0
vn 0 0 1
vn 0 0 -1
vn 0 -1 0
vn 0 1 0

# texcoords
vt 0.00585938 0.5
vt 0.0332031 0.5
vt 0.0839844 0.5
vt 0.166016 0.5
vt 0.232422 0.5
vt 0.236328 0.5
vt 0.240234 0.5

# verts
v -0.3 0.9 -0.3
v -0.3 0.9 -0.4
v -0.3 1 0.4
v -0.3 1 0.3
v -0.3 1.1 -0.2
v -0.3 1.1 -0.3
v -0.3 1.2 -0.1
v -0.3 1.2 -0.2
v -0.3 1.3 0.4
v -0.3 1.3 0.3
v -0.3 1.3 0.1
v -0.3 1.3 0
v -0.3 1.3 -0.1
v -0.3 1.3 -0.3
v -0.3 1.3 -0.4
v -0.3 1.4 0.3
v -0.3 1.4 0.1
v -0.3 1.4 0
v -0.3 1.4 -0.3
v -0.2 0.3 0.2
v -0.2 0.3 -0.2
v -0.2 0.4 0.2
v -0.2 0.4 -0.2
v -0.2 0.8 0.4
v -0.2 0.8 0.3
v -0.2 0.8 0.1
v -0.2 0.8 -0.1
v -0.2 0.8 -0.3
v -0.2 0.8 -0.4
v -0.2 0.9 0.3
v -0.2 0.9 0.2
v -0.2 0.9 0.1
v -0.2 0.9 -0.1
v -0.2 0.9 -0.2
v -0.2 0.9 -0.3
v -0.2 0.9 -0.4
v -0.2 1 0.4
v -0.2 1 0.3
v -0.2 1 0.2
v -0.2 1 0.1
v -0.2 1 -0.1
v -0.2 1 -0.2
v -0.2 1 -0.3
v -0.2 1.1 -0.2
v -0.2 1.1 -0.3
v -0.2 1.2 0.2
v -0.2 1.2 0.1
v -0.2 1.2 -0.1
v -0.2 1.2 -0.2
v -0.2 1.3 0.3
v -0.2 1.3 0.1
v -0.2 1.3 0
v -0.2 1.3 -0.1
v -0.2 1.4 0.1
v -0.2 1.4 0
v -0.1 0 0.2
v -0.1 0 0.1
v -0.1 0 -0.1
v -0.1 0 -0.2
v -0.1 0.1 0.2
v -0.1 0.1 0.1
v -0.1 0.1 -0.1
v -0.1 0.1 -0.2
v -0.1 0.3 0.3
v -0.1 0.3 0.2
v -0.1 0.3 -0.2
v -0.1 0.3 -0.3
v -0.1 0.4 0.3
v -0.1 0.4 0.2
v -0.1 0.4 -0.2
v -0.1 0.4 -0.3
v -0.1 0.5 0.3
v -0.1 0.5 0.2
v -0.1 0.5 0.1
v -0.1 0.5 -0.1
v -0.1 0.5 -0.2
v -0.1 0.5 -0.3
v -0.1 0.6 0.3
v -0.1 0.6 0.2
v -0.1 0.6 0.1
v -0.1 0.6 -0.1
v -0.1 0.6 -0.2
v -0.1 0.6 -0.3
v -0.1 0.7 0.1
v -0.1 0.7 -0.1
v -0.1 0.8 0.2
v -0.1 0.8 0.1
v -0.1 0.8 -0.1
v -0.1 0.8 -0.2
v 2.98023e-008 0.1 0.2
v 2.98023e-008 0.1 0.1
v 2.98023e-008 0.1 -0.1
v 2.98023e-008 0.1 -0.2
v 2.98023e-008 0.3 0.2
v 2.98023e-008 0.3 0.1
v 2.98023e-008 0.3 -0.1
v 2.98023e-008 0.3 -0.2
v 2.98023e-008 0.6 0.3
v 2.98023e-008 0.6 0.2
v 2.98023e-008 0.6 -0.2
v 2.98023e-008 0.6 -0.3
v 2.98023e-008 0.7 0.4
v 2.98023e-008 0.7 0.3
v 2.98023e-008 0.7 0.2
v 2.98023e-008 0.7 -0.2
v 2.98023e-008 0.7 -0.3
v 2.98023e-008 0.7 -0.4
v 2.98023e-008 0.8 0.4
v 2.98023e-008 0.8 0.3
v 2.98023e-008 0.8 0.2
v 2.98023e-008 0.8 -0.2
v 2.98023e-008 0.8 -0.3
v 2.98023e-008 0.8 -0.4
v 0.1 0.6 0.4
v 0.1 0.6 0.3
v 0.1 0.6 -0.3
v 0.1 0.6 -0.4
v 0.1 0.7 0.4
v 0.1 0.7 0.3
v 0.1 0.7 -0.3
v 0.1 0.7 -0.4
v 2.98023e-008 0.5 0.3
v 2.98023e-008 0.5 0.2
v 2.98023e-008 0.5 -0.2
v 2.98023e-008 0.5 -0.3
v 2.98023e-008 0.6 0.3
v 2.98023e-008 0.6 0.2
v 2.98023e-008 0.6 -0.2
v 2.98023e-008 0.6 -0.3
v 0.1 0 0.2
v 0.1 0 0.1
v 0.1 0 -0.1
v 0.1 0 -0.2
v 0.1 0.1 0.2
v 0.1 0.1 0.1
v 0.1 0.1 -0.1
v 0.1 0.1 -0.2
v 0.1 0.3 0.2
v 0.1 0.3 0.1
v 0.1 0.3 -0.1
v 0.1 0.3 -0.2
v 0.1 0.6 0.3
v 0.1 0.6 0.2
v 0.1 0.6 -0.2
v 0.1 0.6 -0.3
v 0.1 0.7 0.3
v 0.1 0.7 0.2
v 0.1 0.7 -0.2
v 0.1 0.7 -0.3
v 0.1 0.8 0.3
v 0.1 0.8 0.2
v 0.1 0.8 -0.2
v 0.1 0.8 -0.3
v 0.2 0.3 0.3
v 0.2 0.3 0.2
v 0.2 0.3 -0.2
v 0.2 0.3 -0.3
v 0.2 0.4 0.3
v 0.2 0.4 0.2
v 0.2 0.4 -0.2
v 0.2 0.4 -0.3
v 0.2 0.5 0.2
v 0.2 0.5 -0.2
v 0.2 0.8 0.2
v 0.2 0.8 -0.2
v 0.3 0.3 0.2
v 0.3 0.3 -0.2
v 0.3 0.4 0.2
v 0.3 0.4 -0.2
v 0.3 0.6 0.4
v 0.3 0.6 0.3
v 0.3 0.6 -0.3
v 0.3 0.6 -0.4
v 0.3 0.8 0.3
v 0.3 0.8 -0.3
v 0.3 1.3 0.4
v 0.3 1.3 0.3
v 0.3 1.3 -0.3
v 0.3 1.3 -0.4
v 0.3 1.4 0.3
v 0.3 1.4 -0.3
v 0.4 0.8 0.3
v 0.4 0.8 -0.3
v 0.4 1.3 0.3
v 0.4 1.3 -0.3
v -0.3 1 0.4
v -0.3 1.3 0.4
v -0.2 0.8 0.4
v -0.2 1 0.4
v 2.98023e-008 0.7 0.4
v 2.98023e-008 0.8 0.4
v 0.1 0.6 0.4
v 0.1 0.7 0.4
v 0.3 0.6 0.4
v 0.3 1.3 0.4
v -0.3 1.3 0.3
v -0.3 1.4 0.3
v -0.1 0.3 0.3
v -0.1 0.4 0.3
v -0.1 0.5 0.3
v -0.1 0.6 0.3
v 2.98023e-008 0.5 0.3
v 2.98023e-008 0.6 0.3
v 2.98023e-008 0.7 0.3
v 0.1 0.6 0.3
v 0.1 0.7 0.3
v 0.2 0.3 0.3
v 0.2 0.4 0.3
v 0.3 0.8 0.3
v 0.3 1.3 0.3
v 0.3 1.4 0.3
v 0.4 0.8 0.3
v 0.4 1.3 0.3
v -0.2 0.3 0.2
v -0.2 0.4 0.2
v -0.1 0 0.2
v -0.1 0.1 0.2
v -0.1 0.3 0.2
v -0.1 0.4 0.2
v -0.1 0.5 0.2
v -0.1 0.6 0.2
v -0.1 0.8 0.2
v 2.98023e-008 0.1 0.2
v 2.98023e-008 0.3 0.2
v 2.98023e-008 0.5 0.2
v 2.98023e-008 0.6 0.2
v 2.98023e-008 0.7 0.2
v 2.98023e-008 0.8 0.2
v 0.1 0 0.2
v 0.1 0.1 0.2
v 0.1 0.3 0.2
v 0.1 0.6 0.2
v 0.1 0.7 0.2
v 0.1 0.8 0.2
v 0.2 0.3 0.2
v 0.2 0.4 0.2
v 0.2 0.5 0.2
v 0.2 0.8 0.2
v 0.3 0.3 0.2
v 0.3 0.4 0.2
v -0.3 1.3 0
v -0.3 1.4 0
v -0.2 1.3 0
v -0.2 1.4 0
v -0.3 1.2 -0.1
v -0.3 1.3 -0.1
v -0.2 1.2 -0.1
v -0.2 1.3 -0.1
v -0.1 0 -0.1
v -0.1 0.1 -0.1
v 2.98023e-008 0.1 -0.1
v 2.98023e-008 0.3 -0.1
v 0.1 0 -0.1
v 0.1 0.1 -0.1
v 0.1 0.3 -0.1
v -0.3 1.1 -0.2
v -0.3 1.2 -0.2
v -0.2 1.1 -0.2
v -0.2 1.2 -0.2
v -0.3 0.9 -0.3
v -0.3 1.1 -0.3
v -0.2 0.9 -0.3
v -0.2 1 -0.3
v -0.2 1.1 -0.3
v 0.1 0.6 -0.3
v 0.1 0.7 -0.3
v 0.1 0.8 -0.3
v 0.3 0.6 -0.3
v 0.3 0.8 -0.3
v -0.3 1 0.3
v -0.3 1.3 0.3
v -0.2 1 0.3
v -0.2 1.3 0.3
v 0.1 0.6 0.3
v 0.1 0.7 0.3
v 0.1 0.8 0.3
v 0.3 0.6 0.3
v 0.3 0.8 0.3
v -0.3 1.3 0.1
v -0.3 1.4 0.1
v -0.2 1.3 0.1
v -0.2 1.4 0.1
v -0.1 0 0.1
v -0.1 0.1 0.1
v 2.98023e-008 0.1 0.1
v 2.98023e-008 0.3 0.1
v 0.1 0 0.1
v 0.1 0.1 0.1
v 0.1 0.3 0.1
v -0.2 0.3 -0.2
v -0.2 0.4 -0.2
v -0.1 0 -0.2
v -0.1 0.1 -0.2
v -0.1 0.3 -0.2
v -0.1 0.4 -0.2
v -0.1 0.5 -0.2
v -0.1 0.6 -0.2
v -0.1 0.8 -0.2
v 2.98023e-008 0.1 -0.2
v 2.98023e-008 0.3 -0.2
v 2.98023e-008 0.5 -0.2
v 2.98023e-008 0.6 -0.2
v 2.98023e-008 0.7 -0.2
v 2.98023e-008 0.8 -0.2
v 0.1 0 -0.2
v 0.1 0.1 -0.2
v 0.1 0.3 -0.2
v 0.1 0.6 -0.2
v 0.1 0.7 -0.2
v 0.1 0.8 -0.2
v 0.2 0.3 -0.2
v 0.2 0.4 -0.2
v 0.2 0.5 -0.2
v 0.2 0.8 -0.2
v 0.3 0.3 -0.2
v 0.3 0.4 -0.2
v -0.3 1.3 -0.3
v -0.3 1.4 -0.3
v -0.1 0.3 -0.3
v -0.1 0.4 -0.3
v -0.1 0.5 -0.3
v -0.1 0.6 -0.3
v 2.98023e-008 0.5 -0.3
v 2.98023e-008 0.6 -0.3
v 2.98023e-008 0.7 -0.3
v 0.1 0.6 -0.3
v 0.1 0.7 -0.3
v 0.2 0.3 -0.3
v 0.2 0.4 -0.3
v 0.3 0.8 -0.3
v 0.3 1.3 -0.3
v 0.3 1.4 -0.3
v 0.4 0.8 -0.3
v 0.4 1.3 -0.3
v -0.3 0.9 -0.4
v -0.3 1.3 -0.4
v -0.2 0.8 -0.4
v -0.2 0.9 -0.4
v 2.98023e-008 0.7 -0.4
v 2.98023e-008 0.8 -0.4
v 0.1 0.6 -0.4
v 0.1 0.7 -0.4
v 0.3 0.6 -0.4
v 0.3 1.3 -0.4
v -0.1 0 0.2
v 0.1 0 0.2
v -0.1 0 0.1
v 0.1 0 0.1
v -0.1 0 -0.1
v 0.1 0 -0.1
v -0.1 0 -0.2
v 0.1 0 -0.2
v -0.1 0.3 0.3
v 0.2 0.3 0.3
v -0.2 0.3 0.2
v -0.1 0.3 0.2
v 2.98023e-008 0.3 0.2
v 0.1 0.3 0.2
v 0.2 0.3 0.2
v 0.3 0.3 0.2
v 2.98023e-008 0.3 0.1
v 0.1 0.3 0.1
v 2.98023e-008 0.3 -0.1
v 0.1 0.3 -0.1
v -0.2 0.3 -0.2
v -0.1 0.3 -0.2
v 2.98023e-008 0.3 -0.2
v 0.1 0.3 -0.2
v 0.2 0.3 -0.2
v 0.3 0.3 -0.2
v -0.1 0.3 -0.3
v 0.2 0.3 -0.3
v -0.1 0.5 0.3
v 2.98023e-008 0.5 0.3
v -0.1 0.5 0.2
v 2.98023e-008 0.5 0.2
v -0.1 0.5 -0.2
v 2.98023e-008 0.5 -0.2
v -0.1 0.5 -0.3
v 2.98023e-008 0.5 -0.3
v 0.1 0.6 0.4
v 0.3 0.6 0.4
v 2.98023e-008 0.6 0.3
v 0.1 0.6 0.3
v 0.3 0.6 0.3
v 2.98023e-008 0.6 0.2
v 0.1 0.6 0.2
v 2.98023e-008 0.6 -0.2
v 0.1 0.6 -0.2
v 2.98023e-008 0.6 -0.3
v 0.1 0.6 -0.3
v 0.3 0.6 -0.3
v 0.1 0.6 -0.4
v 0.3 0.6 -0.4
v 2.98023e-008 0.7 0.4
v 0.1 0.7 0.4
v 2.98023e-008 0.7 0.3
v 0.1 0.7 0.3
v 2.98023e-008 0.7 -0.3
v 0.1 0.7 -0.3
v 2.98023e-008 0.7 -0.4
v 0.1 0.7 -0.4
v -0.2 0.8 0.4
v 2.98023e-008 0.8 0.4
v -0.2 0.8 0.3
v 2.98023e-008 0.8 0.3
v 0.1 0.8 0.3
v 0.3 0.8 0.3
v 0.4 0.8 0.3
v -0.1 0.8 0.2
v 2.98023e-008 0.8 0.2
v 0.1 0.8 0.2
v 0.2 0.8 0.2
v -0.2 0.8 0.1
v -0.1 0.8 0.1
v -0.2 0.8 -0.1
v -0.1 0.8 -0.1
v -0.1 0.8 -0.2
v 2.98023e-008 0.8 -0.2
v 0.1 0.8 -0.2
v 0.2 0.8 -0.2
v -0.2 0.8 -0.3
v 2.98023e-008 0.8 -0.3
v 0.1 0.8 -0.3
v 0.3 0.8 -0.3
v 0.4 0.8 -0.3
v -0.2 0.8 -0.4
v 2.98023e-008 0.8 -0.4
v -0.3 0.9 -0.3
v -0.2 0.9 -0.3
v -0.3 0.9 -0.4
v -0.2 0.9 -0.4
v -0.3 1 0.4
v -0.2 1 0.4
v -0.3 1 0.3
v -0.2 1 0.3
v -0.3 1.1 -0.2
v -0.2 1.1 -0.2
v -0.3 1.1 -0.3
v -0.2 1.1 -0.3
v -0.3 1.2 -0.1
v -0.2 1.2 -0.1
v -0.3 1.2 -0.2
v -0.2 1.2 -0.2
v -0.3 1.3 0.3
v -0.2 1.3 0.3
v -0.3 1.3 0.1
v -0.2 1.3 0.1
v -0.3 1.3 0
v -0.2 1.3 0
v -0.3 1.3 -0.1
v -0.2 1.3 -0.1
v -0.1 0.1 0.2
v 2.98023e-008 0.1 0.2
v -0.1 0.1 0.1
v 2.98023e-008 0.1 0.1
v -0.1 0.1 -0.1
v 2.98023e-008 0.1 -0.1
v -0.1 0.1 -0.2
v 2.98023e-008 0.1 -0.2
v -0.1 0.4 0.3
v 0.2 0.4 0.3
v -0.2 0.4 0.2
v -0.1 0.4 0.2
v 0.2 0.4 0.2
v 0.3 0.4 0.2
v -0.2 0.4 -0.2
v -0.1 0.4 -0.2
v 0.2 0.4 -0.2
v 0.3 0.4 -0.2
v -0.1 0.4 -0.3
v 0.2 0.4 -0.3
v -0.1 0.6 0.3
v 2.98023e-008 0.6 0.3
v -0.1 0.6 0.2
v 2.98023e-008 0.6 0.2
v -0.1 0.6 -0.2
v 2.98023e-008 0.6 -0.2
v -0.1 0.6 -0.3
v 2.98023e-008 0.6 -0.3
v -0.3 1.3 0.4
v 0.3 1.3 0.4
v -0.3 1.3 0.3
v 0.3 1.3 0.3
v 0.4 1.3 0.3
v -0.3 1.3 -0.3
v 0.3 1.3 -0.3
v 0.4 1.3 -0.3
v -0.3 1.3 -0.4
v 0.3 1.3 -0.4
v -0.3 1.4 0.3
v 0.3 1.4 0.3
v -0.3 1.4 0.1
v -0.2 1.4 0.1
v -0.3 1.4 0
v -0.2 1.4 0
v -0.3 1.4 -0.3
v 0.3 1.4 -0.3

# faces
f 6/4/1 2/4/1 1/4/1
f 8/4/1 6/4/1 5/4/1
f 9/4/1 4/4/1 3/4/1
f 10/4/1 4/4/1 9/4/1
f 13/4/1 8/4/1 7/4/1
f 14/4/1 2/4/1 6/4/1
f 14/4/1 6/4/1 8/4/1
f 14/4/1 8/4/1 13/4/1
f 15/4/1 2/4/1 14/4/1
f 16/4/1 11/4/1 10/4/1
f 17/4/1 11/4/1 16/4/1
f 18/4/1 13/4/1 12/4/1
f 18/4/1 14/4/1 13/4/1
f 19/4/1 14/4/1 18/4/1
f 22/6/1 21/6/1 20/6/1
f 23/6/1 21/6/1 22/6/1
f 30/4/1 25/4/1 24/4/1
f 30/3/1 26/3/1 25/3/1
f 31/3/1 26/3/1 30/3/1
f 32/7/1 27/7/1 26/7/1
f 32/3/1 26/3/1 31/3/1
f 33/3/1 28/3/1 27/3/1
f 33/7/1 27/7/1 32/7/1
f 34/3/1 28/3/1 33/3/1
f 35/4/1 29/4/1 28/4/1
f 35/3/1 28/3/1 34/3/1
f 36/4/1 29/4/1 35/4/1
f 37/4/1 30/4/1 24/4/1
f 38/5/1 31/5/1 30/5/1
f 38/4/1 30/4/1 37/4/1
f 39/3/1 34/3/1 33/3/1
f 39/5/1 31/5/1 38/5/1
f 39/3/1 32/3/1 31/3/1
f 39/3/1 33/3/1 32/3/1
f 40/3/1 34/3/1 39/3/1
f 41/3/1 34/3/1 40/3/1
f 42/5/1 35/5/1 34/5/1
f 42/3/1 34/3/1 41/3/1
f 43/5/1 35/5/1 42/5/1
f 44/1/1 42/1/1 41/1/1
f 44/3/1 43/3/1 42/3/1
f 45/3/1 43/3/1 44/3/1
f 46/3/1 39/3/1 38/3/1
f 46/1/1 40/1/1 39/1/1
f 47/3/1 41/3/1 40/3/1
f 47/1/1 40/1/1 46/1/1
f 48/1/1 44/1/1 41/1/1
f 48/3/1 41/3/1 47/3/1
f 49/1/1 44/1/1 48/1/1
f 50/3/1 46/3/1 38/3/1
f 50/3/1 47/3/1 46/3/1
f 50/3/1 48/3/1 47/3/1
f 51/3/1 48/3/1 50/3/1
f 52/3/1 48/3/1 51/3/1
f 53/3/1 48/3/1 52/3/1
f 54/4/1 52/4/1 51/4/1
f 55/4/1 52/4/1 54/4/1
f 60/1/1 57/1/1 56/1/1
f 61/1/1 57/1/1 60/1/1
f 62/1/1 59/1/1 58/1/1
f 63/1/1 59/1/1 62/1/1
f 68/6/1 65/6/1 64/6/1
f 69/6/1 65/6/1 68/6/1
f 70/6/1 67/6/1 66/6/1
f 71/6/1 67/6/1 70/6/1
f 73/6/1 70/6/1 69/6/1
f 74/6/1 70/6/1 73/6/1
f 75/6/1 70/6/1 74/6/1
f 76/6/1 70/6/1 75/6/1
f 78/3/1 73/3/1 72/3/1
f 79/2/1 74/2/1 73/2/1
f 79/3/1 73/3/1 78/3/1
f 80/1/1 75/1/1 74/1/1
f 80/2/1 74/2/1 79/2/1
f 81/2/1 76/2/1 75/2/1
f 81/1/1 75/1/1 80/1/1
f 82/3/1 77/3/1 76/3/1
f 82/2/1 76/2/1 81/2/1
f 83/3/1 77/3/1 82/3/1
f 84/2/1 81/2/1 80/2/1
f 84/2/1 82/2/1 81/2/1
f 84/2/1 80/2/1 79/2/1
f 85/2/1 82/2/1 84/2/1
f 86/2/1 84/2/1 79/2/1
f 87/1/1 85/1/1 84/1/1
f 87/2/1 84/2/1 86/2/1
f 88/2/1 82/2/1 85/2/1
f 88/1/1 85/1/1 87/1/1
f 89/2/1 82/2/1 88/2/1
f 94/3/1 91/3/1 90/3/1
f 95/3/1 91/3/1 94/3/1
f 96/3/1 93/3/1 92/3/1
f 97/3/1 93/3/1 96/3/1
f 103/3/1 99/3/1 98/3/1
f 104/3/1 99/3/1 103/3/1
f 105/3/1 101/3/1 100/3/1
f 106/3/1 101/3/1 105/3/1
f 108/4/1 103/4/1 102/4/1
f 109/2/1 104/2/1 103/2/1
f 109/4/1 103/4/1 108/4/1
f 110/2/1 104/2/1 109/2/1
f 111/2/1 106/2/1 105/2/1
f 112/4/1 107/4/1 106/4/1
f 112/2/1 106/2/1 111/2/1
f 113/4/1 107/4/1 112/4/1
f 118/4/1 115/4/1 114/4/1
f 119/4/1 115/4/1 118/4/1
f 120/4/1 117/4/1 116/4/1
f 121/4/1 117/4/1 120/4/1
f 122/3/2 123/3/2 126/3/2
f 126/3/2 123/3/2 127/3/2
f 124/3/2 125/3/2 128/3/2
f 128/3/2 125/3/2 129/3/2
f 130/1/2 131/1/2 134/1/2
f 134/1/2 131/1/2 135/1/2
f 132/1/2 133/1/2 136/1/2
f 136/1/2 133/1/2 137/1/2
f 134/3/2 135/3/2 138/3/2
f 138/3/2 135/3/2 139/3/2
f 136/3/2 137/3/2 140/3/2
f 140/3/2 137/3/2 141/3/2
f 142/3/2 143/3/2 146/3/2
f 146/3/2 143/3/2 147/3/2
f 144/3/2 145/3/2 148/3/2
f 148/3/2 145/3/2 149/3/2
f 146/2/2 147/2/2 150/2/2
f 150/2/2 147/2/2 151/2/2
f 148/2/2 149/2/2 152/2/2
f 152/2/2 149/2/2 153/2/2
f 154/6/2 155/6/2 158/6/2
f 158/6/2 155/6/2 159/6/2
f 156/6/2 157/6/2 160/6/2
f 160/6/2 157/6/2 161/6/2
f 159/6/2 160/6/2 162/6/2
f 162/6/2 160/6/2 163/6/2
f 162/2/2 163/2/2 164/2/2
f 164/2/2 163/2/2 165/2/2
f 166/6/2 167/6/2 168/6/2
f 168/6/2 167/6/2 169/6/2
f 170/4/2 171/4/2 174/4/2
f 172/4/2 173/4/2 175/4/2
f 170/4/2 174/4/2 176/4/2
f 176/4/2 174/4/2 177/4/2
f 175/4/2 173/4/2 178/4/2
f 178/4/2 173/4/2 179/4/2
f 177/4/2 178/4/2 180/4/2
f 180/4/2 178/4/2 181/4/2
f 182/4/2 183/4/2 184/4/2
f 184/4/2 183/4/2 185/4/2
f 189/4/3 187/4/3 186/4/3
f 191/4/3 189/4/3 188/4/3
f 193/4/3 191/4/3 190/4/3
f 194/4/3 193/4/3 192/4/3
f 195/4/3 187/4/3 189/4/3
f 195/4/3 193/4/3 194/4/3
f 195/4/3 189/4/3 191/4/3
f 195/4/3 191/4/3 193/4/3
f 202/3/3 201/3/3 200/3/3
f 203/3/3 201/3/3 202/3/3
f 205/3/3 204/3/3 203/3/3
f 206/3/3 204/3/3 205/3/3
f 207/6/3 199/6/3 198/6/3
f 208/6/3 199/6/3 207/6/3
f 210/4/3 197/4/3 196/4/3
f 211/4/3 197/4/3 210/4/3
f 212/4/3 210/4/3 209/4/3
f 213/4/3 210/4/3 212/4/3
f 218/6/3 215/6/3 214/6/3
f 219/6/3 215/6/3 218/6/3
f 223/1/3 217/1/3 216/1/3
f 225/6/3 220/6/3 219/6/3
f 226/2/3 222/2/3 221/2/3
f 227/2/3 222/2/3 226/2/3
f 228/2/3 222/2/3 227/2/3
f 229/1/3 223/1/3 216/1/3
f 230/3/3 224/3/3 223/3/3
f 230/1/3 223/1/3 229/1/3
f 231/3/3 224/3/3 230/3/3
f 232/2/3 226/2/3 225/2/3
f 236/6/3 225/6/3 219/6/3
f 237/2/3 232/2/3 225/2/3
f 237/2/3 234/2/3 233/2/3
f 237/6/3 225/6/3 236/6/3
f 237/2/3 233/2/3 232/2/3
f 238/2/3 234/2/3 237/2/3
f 239/6/3 236/6/3 235/6/3
f 240/6/3 236/6/3 239/6/3
f 243/4/3 242/4/3 241/4/3
f 244/4/3 242/4/3 243/4/3
f 247/4/3 246/4/3 245/4/3
f 248/4/3 246/4/3 247/4/3
f 251/1/3 250/1/3 249/1/3
f 253/1/3 251/1/3 249/1/3
f 254/3/3 252/3/3 251/3/3
f 254/1/3 251/1/3 253/1/3
f 255/3/3 252/3/3 254/3/3
f 258/4/3 257/4/3 256/4/3
f 259/4/3 257/4/3 258/4/3
f 262/4/3 261/4/3 260/4/3
f 263/4/3 261/4/3 262/4/3
f 264/4/3 261/4/3 263/4/3
f 268/4/3 266/4/3 265/4/3
f 268/4/3 267/4/3 266/4/3
f 269/4/3 267/4/3 268/4/3
f 270/4/4 271/4/4 272/4/4
f 272/4/4 271/4/4 273/4/4
f 274/4/4 275/4/4 277/4/4
f 275/4/4 276/4/4 277/4/4
f 277/4/4 276/4/4 278/4/4
f 279/4/4 280/4/4 281/4/4
f 281/4/4 280/4/4 282/4/4
f 283/1/4 284/1/4 285/1/4
f 283/1/4 285/1/4 287/1/4
f 285/3/4 286/3/4 288/3/4
f 287/1/4 285/1/4 288/1/4
f 288/3/4 286/3/4 289/3/4
f 290/6/4 291/6/4 294/6/4
f 294/6/4 291/6/4 295/6/4
f 292/1/4 293/1/4 299/1/4
f 295/6/4 296/6/4 301/6/4
f 297/2/4 298/2/4 302/2/4
f 302/2/4 298/2/4 303/2/4
f 303/2/4 298/2/4 304/2/4
f 292/1/4 299/1/4 305/1/4
f 299/3/4 300/3/4 306/3/4
f 305/1/4 299/1/4 306/1/4
f 306/3/4 300/3/4 307/3/4
f 301/2/4 302/2/4 308/2/4
f 295/6/4 301/6/4 312/6/4
f 301/2/4 308/2/4 313/2/4
f 309/2/4 310/2/4 313/2/4
f 312/6/4 301/6/4 313/6/4
f 308/2/4 309/2/4 313/2/4
f 313/2/4 310/2/4 314/2/4
f 311/6/4 312/6/4 315/6/4
f 315/6/4 312/6/4 316/6/4
f 321/3/4 322/3/4 323/3/4
f 323/3/4 322/3/4 324/3/4
f 324/3/4 325/3/4 326/3/4
f 326/3/4 325/3/4 327/3/4
f 319/6/4 320/6/4 328/6/4
f 328/6/4 320/6/4 329/6/4
f 317/4/4 318/4/4 331/4/4
f 331/4/4 318/4/4 332/4/4
f 330/4/4 331/4/4 333/4/4
f 333/4/4 331/4/4 334/4/4
f 335/4/4 336/4/4 338/4/4
f 337/4/4 338/4/4 340/4/4
f 339/4/4 340/4/4 342/4/4
f 341/4/4 342/4/4 343/4/4
f 338/4/4 336/4/4 344/4/4
f 343/4/4 342/4/4 344/4/4
f 340/4/4 338/4/4 344/4/4
f 342/4/4 340/4/4 344/4/4
f 347/1/5 346/1/5 345/1/5
f 348/1/5 346/1/5 347/1/5
f 351/1/5 350/1/5 349/1/5
f 352/1/5 350/1/5 351/1/5
f 356/6/5 354/6/5 353/6/5
f 357/6/5 354/6/5 356/6/5
f 358/6/5 354/6/5 357/6/5
f 359/6/5 354/6/5 358/6/5
f 361/6/5 356/6/5 355/6/5
f 361/6/5 357/6/5 356/6/5
f 362/6/5 360/6/5 359/6/5
f 362/6/5 359/6/5 358/6/5
f 363/6/5 361/6/5 355/6/5
f 363/6/5 362/6/5 361/6/5
f 364/6/5 360/6/5 362/6/5
f 364/6/5 362/6/5 363/6/5
f 365/6/5 363/6/5 355/6/5
f 366/6/5 363/6/5 365/6/5
f 367/6/5 363/6/5 366/6/5
f 368/6/5 360/6/5 364/6/5
f 369/6/5 360/6/5 368/6/5
f 370/6/5 360/6/5 369/6/5
f 371/6/5 367/6/5 366/6/5
f 371/6/5 369/6/5 368/6/5
f 371/6/5 368/6/5 367/6/5
f 372/6/5 369/6/5 371/6/5
f 375/3/5 374/3/5 373/3/5
f 376/3/5 374/3/5 375/3/5
f 379/3/5 378/3/5 377/3/5
f 380/3/5 378/3/5 379/3/5
f 384/4/5 382/4/5 381/4/5
f 385/4/5 382/4/5 384/4/5
f 386/3/5 384/3/5 383/3/5
f 387/3/5 384/3/5 386/3/5
f 390/3/5 389/3/5 388/3/5
f 391/3/5 389/3/5 390/3/5
f 393/4/5 392/4/5 391/4/5
f 394/4/5 392/4/5 393/4/5
f 397/4/5 396/4/5 395/4/5
f 398/4/5 396/4/5 397/4/5
f 401/4/5 400/4/5 399/4/5
f 402/4/5 400/4/5 401/4/5
f 405/4/5 404/4/5 403/4/5
f 406/4/5 404/4/5 405/4/5
f 410/3/5 406/3/5 405/3/5
f 411/3/5 406/3/5 410/3/5
f 412/3/5 408/3/5 407/3/5
f 413/3/5 408/3/5 412/3/5
f 414/3/5 410/3/5 405/3/5
f 415/3/5 410/3/5 414/3/5
f 416/7/5 415/7/5 414/7/5
f 417/7/5 415/7/5 416/7/5
f 418/3/5 417/3/5 416/3/5
f 421/3/5 408/3/5 413/3/5
f 422/3/5 419/3/5 418/3/5
f 422/3/5 418/3/5 416/3/5
f 423/3/5 419/3/5 422/3/5
f 424/3/5 421/3/5 420/3/5
f 425/4/5 409/4/5 408/4/5
f 425/3/5 421/3/5 424/3/5
f 425/3/5 408/3/5 421/3/5
f 426/4/5 409/4/5 425/4/5
f 427/4/5 423/4/5 422/4/5
f 428/4/5 423/4/5 427/4/5
f 431/4/5 430/4/5 429/4/5
f 432/4/5 430/4/5 431/4/5
f 435/4/5 434/4/5 433/4/5
f 436/4/5 434/4/5 435/4/5
f 439/4/5 438/4/5 437/4/5
f 440/4/5 438/4/5 439/4/5
f 443/4/5 442/4/5 441/4/5
f 444/4/5 442/4/5 443/4/5
f 447/4/5 446/4/5 445/4/5
f 448/4/5 446/4/5 447/4/5
f 451/4/5 450/4/5 449/4/5
f 452/4/5 450/4/5 451/4/5
f 453/1/6 454/1/6 455/1/6
f 455/1/6 454/1/6 456/1/6
f 457/1/6 458/1/6 459/1/6
f 459/1/6 458/1/6 460/1/6
f 461/6/6 462/6/6 464/6/6
f 464/6/6 462/6/6 465/6/6
f 463/6/6 464/6/6 467/6/6
f 467/6/6 464/6/6 468/6/6
f 465/6/6 466/6/6 469/6/6
f 469/6/6 466/6/6 470/6/6
f 468/6/6 469/6/6 471/6/6
f 471/6/6 469/6/6 472/6/6
f 473/3/6 474/3/6 475/3/6
f 475/3/6 474/3/6 476/3/6
f 477/3/6 478/3/6 479/3/6
f 479/3/6 478/3/6 480/3/6
f 481/4/6 482/4/6 483/4/6
f 483/4/6 482/4/6 484/4/6
f 484/4/6 485/4/6 487/4/6
f 487/4/6 485/4/6 488/4/6
f 486/4/6 487/4/6 489/4/6
f 489/4/6 487/4/6 490/4/6
f 491/4/6 492/4/6 493/4/6
f 493/4/6 492/4/6 494/4/6
f 494/4/6 492/4/6 496/4/6
f 495/4/6 496/4/6 497/4/6
f 496/4/6 492/4/6 498/4/6
f 497/4/6 496/4/6 498/4/6
