# MagicaVoxel @ Ephtracy

# group
o 

# material
mtllib Char01.mtl
usemtl palette

# normals
vn -1 0 0
vn 1 0 0
vn 0 0 1
vn 0 0 -1
vn 0 -1 0
vn 0 1 0

# texcoords
vt 0.00585938 0.5
vt 0.0332031 0.5
vt 0.0410156 0.5
vt 0.0488281 0.5
vt 0.0605469 0.5
vt 0.0644531 0.5
vt 0.0683594 0.5
vt 0.0800781 0.5
vt 0.0839844 0.5
vt 0.103516 0.5
vt 0.119141 0.5

# verts
v -0.3 1 0.4
v -0.3 1 -0.4
v -0.3 1.1 0.1
v -0.3 1.1 -0.1
v -0.3 1.2 0.1
v -0.3 1.2 -0.1
v -0.3 1.3 0.3
v -0.3 1.3 0.2
v -0.3 1.3 0.1
v -0.3 1.3 -0.1
v -0.3 1.3 -0.2
v -0.3 1.3 -0.3
v -0.3 1.4 0.2
v -0.3 1.4 0.1
v -0.3 1.4 -0.1
v -0.3 1.4 -0.2
v -0.3 1.5 0.3
v -0.3 1.5 0.1
v -0.3 1.5 -0.1
v -0.3 1.5 -0.3
v -0.3 1.6 0.4
v -0.3 1.6 0.3
v -0.3 1.6 0.2
v -0.3 1.6 -0.2
v -0.3 1.6 -0.3
v -0.3 1.6 -0.4
v -0.3 1.7 0.4
v -0.3 1.7 0.3
v -0.3 1.7 0.2
v -0.3 1.7 -0.2
v -0.3 1.7 -0.3
v -0.3 1.7 -0.4
v -0.2 0 0.3
v -0.2 0 0.1
v -0.2 0 -0.1
v -0.2 0 -0.3
v -0.2 0.1 0.3
v -0.2 0.1 0.1
v -0.2 0.1 -0.1
v -0.2 0.1 -0.3
v -0.2 0.4 0.3
v -0.2 0.4 -0.3
v -0.2 0.5 0.3
v -0.2 0.5 0.1
v -0.2 0.5 -0.1
v -0.2 0.5 -0.3
v -0.2 0.6 0.3
v -0.2 0.6 0.2
v -0.2 0.6 0.1
v -0.2 0.6 -0.1
v -0.2 0.6 -0.2
v -0.2 0.6 -0.3
v -0.2 1 0.3
v -0.2 1 0.2
v -0.2 1 0.1
v -0.2 1 -0.1
v -0.2 1 -0.2
v -0.2 1 -0.3
v -0.2 1.5 0.5
v -0.2 1.5 0.4
v -0.2 1.5 -0.4
v -0.2 1.5 -0.5
v -0.2 1.6 0.5
v -0.2 1.6 0.4
v -0.2 1.6 0.3
v -0.2 1.6 0.2
v -0.2 1.6 -0.2
v -0.2 1.6 -0.3
v -0.2 1.6 -0.4
v -0.2 1.6 -0.5
v -0.2 1.7 0.3
v -0.2 1.7 0.2
v -0.2 1.7 -0.2
v -0.2 1.7 -0.3
v -0.1 0.1 0.3
v -0.1 0.1 0.1
v -0.1 0.1 -0.1
v -0.1 0.1 -0.3
v -0.1 0.4 0.3
v -0.1 0.4 0.1
v -0.1 0.4 -0.1
v -0.1 0.4 -0.3
v -0.1 0.7 0.4
v -0.1 0.7 0.3
v -0.1 0.7 -0.3
v -0.1 0.7 -0.4
v -0.1 0.9 0.4
v -0.1 0.9 0.3
v -0.1 0.9 -0.3
v -0.1 0.9 -0.4
v -0.1 1.4 0.5
v -0.1 1.4 0.4
v -0.1 1.4 -0.4
v -0.1 1.4 -0.5
v -0.1 1.5 0.5
v -0.1 1.5 0.4
v -0.1 1.5 -0.4
v -0.1 1.5 -0.5
v 2.98023e-008 0.6 0.4
v 2.98023e-008 0.6 0.3
v 2.98023e-008 0.6 -0.3
v 2.98023e-008 0.6 -0.4
v 2.98023e-008 0.7 0.4
v 2.98023e-008 0.7 0.3
v 2.98023e-008 0.7 -0.3
v 2.98023e-008 0.7 -0.4
v 2.98023e-008 1 0.5
v 2.98023e-008 1 0.4
v 2.98023e-008 1 -0.4
v 2.98023e-008 1 -0.5
v 2.98023e-008 1.4 0.5
v 2.98023e-008 1.4 0.4
v 2.98023e-008 1.4 -0.4
v 2.98023e-008 1.4 -0.5
v 0.2 0 0.3
v 0.2 0 0.1
v 0.2 0 -0.1
v 0.2 0 -0.3
v 0.2 0.1 0.3
v 0.2 0.1 0.1
v 0.2 0.1 -0.1
v 0.2 0.1 -0.3
v 0.2 0.4 0.3
v 0.2 0.4 0.1
v 0.2 0.4 -0.1
v 0.2 0.4 -0.3
v 0.2 0.6 0.4
v 0.2 0.6 0.3
v 0.2 0.6 -0.3
v 0.2 0.6 -0.4
v 0.2 0.7 0.4
v 0.2 0.7 0.3
v 0.2 0.7 -0.3
v 0.2 0.7 -0.4
v 0.2 0.9 0.4
v 0.2 0.9 0.3
v 0.2 0.9 -0.3
v 0.2 0.9 -0.4
v 0.3 0.4 0.3
v 0.3 0.4 -0.3
v 0.3 0.5 0.3
v 0.3 0.5 -0.3
v 0.3 0.6 0.3
v 0.3 0.6 -0.3
v 0.3 1 0.3
v 0.3 1 -0.3
v 0.4 1 0.5
v 0.4 1 0.4
v 0.4 1 -0.4
v 0.4 1 -0.5
v 0.4 1.6 0.5
v 0.4 1.6 0.4
v 0.4 1.6 -0.4
v 0.4 1.6 -0.5
v 0.4 1.7 0.4
v 0.4 1.7 -0.4
v 0.5 1 0.4
v 0.5 1 -0.4
v 0.5 1.6 0.4
v 0.5 1.6 -0.4
v -0.2 1.5 0.5
v -0.2 1.6 0.5
v -0.1 1.4 0.5
v -0.1 1.5 0.5
v 2.98023e-008 1 0.5
v 2.98023e-008 1.4 0.5
v 0.4 1 0.5
v 0.4 1.6 0.5
v -0.3 1 0.4
v -0.3 1.6 0.4
v -0.3 1.7 0.4
v -0.2 1.5 0.4
v -0.2 1.6 0.4
v -0.1 0.7 0.4
v -0.1 0.9 0.4
v -0.1 1.4 0.4
v -0.1 1.5 0.4
v 2.98023e-008 0.6 0.4
v 2.98023e-008 0.7 0.4
v 2.98023e-008 1 0.4
v 2.98023e-008 1.4 0.4
v 0.2 0.6 0.4
v 0.2 0.7 0.4
v 0.2 0.9 0.4
v 0.4 1 0.4
v 0.4 1.6 0.4
v 0.4 1.7 0.4
v 0.5 1 0.4
v 0.5 1.6 0.4
v -0.2 0 0.3
v -0.2 0.1 0.3
v -0.2 0.4 0.3
v -0.2 0.5 0.3
v -0.2 0.6 0.3
v -0.2 1 0.3
v -0.1 0.1 0.3
v -0.1 0.4 0.3
v -0.1 0.7 0.3
v -0.1 0.9 0.3
v 2.98023e-008 0.6 0.3
v 2.98023e-008 0.7 0.3
v 0.2 0 0.3
v 0.2 0.1 0.3
v 0.2 0.4 0.3
v 0.2 0.6 0.3
v 0.2 0.7 0.3
v 0.2 0.9 0.3
v 0.3 0.4 0.3
v 0.3 0.5 0.3
v 0.3 0.6 0.3
v 0.3 1 0.3
v -0.3 1.6 0.2
v -0.3 1.7 0.2
v -0.2 1.6 0.2
v -0.2 1.7 0.2
v -0.2 0 -0.1
v -0.2 0.1 -0.1
v -0.1 0.1 -0.1
v -0.1 0.4 -0.1
v 0.2 0 -0.1
v 0.2 0.1 -0.1
v 0.2 0.4 -0.1
v -0.3 1.6 -0.3
v -0.3 1.7 -0.3
v -0.2 1.6 -0.3
v -0.2 1.7 -0.3
v -0.3 1.6 0.3
v -0.3 1.7 0.3
v -0.2 1.6 0.3
v -0.2 1.7 0.3
v -0.2 0 0.1
v -0.2 0.1 0.1
v -0.1 0.1 0.1
v -0.1 0.4 0.1
v 0.2 0 0.1
v 0.2 0.1 0.1
v 0.2 0.4 0.1
v -0.3 1.6 -0.2
v -0.3 1.7 -0.2
v -0.2 1.6 -0.2
v -0.2 1.7 -0.2
v -0.2 0 -0.3
v -0.2 0.1 -0.3
v -0.2 0.4 -0.3
v -0.2 0.5 -0.3
v -0.2 0.6 -0.3
v -0.2 1 -0.3
v -0.1 0.1 -0.3
v -0.1 0.4 -0.3
v -0.1 0.7 -0.3
v -0.1 0.9 -0.3
v 2.98023e-008 0.6 -0.3
v 2.98023e-008 0.7 -0.3
v 0.2 0 -0.3
v 0.2 0.1 -0.3
v 0.2 0.4 -0.3
v 0.2 0.6 -0.3
v 0.2 0.7 -0.3
v 0.2 0.9 -0.3
v 0.3 0.4 -0.3
v 0.3 0.5 -0.3
v 0.3 0.6 -0.3
v 0.3 1 -0.3
v -0.3 1 -0.4
v -0.3 1.6 -0.4
v -0.3 1.7 -0.4
v -0.2 1.5 -0.4
v -0.2 1.6 -0.4
v -0.1 0.7 -0.4
v -0.1 0.9 -0.4
v -0.1 1.4 -0.4
v -0.1 1.5 -0.4
v 2.98023e-008 0.6 -0.4
v 2.98023e-008 0.7 -0.4
v 2.98023e-008 1 -0.4
v 2.98023e-008 1.4 -0.4
v 0.2 0.6 -0.4
v 0.2 0.7 -0.4
v 0.2 0.9 -0.4
v 0.4 1 -0.4
v 0.4 1.6 -0.4
v 0.4 1.7 -0.4
v 0.5 1 -0.4
v 0.5 1.6 -0.4
v -0.2 1.5 -0.5
v -0.2 1.6 -0.5
v -0.1 1.4 -0.5
v -0.1 1.5 -0.5
v 2.98023e-008 1 -0.5
v 2.98023e-008 1.4 -0.5
v 0.4 1 -0.5
v 0.4 1.6 -0.5
v -0.2 0 0.3
v 0.2 0 0.3
v -0.2 0 0.1
v 0.2 0 0.1
v -0.2 0 -0.1
v 0.2 0 -0.1
v -0.2 0 -0.3
v 0.2 0 -0.3
v -0.2 0.4 0.3
v -0.1 0.4 0.3
v 0.2 0.4 0.3
v 0.3 0.4 0.3
v -0.1 0.4 0.1
v 0.2 0.4 0.1
v -0.1 0.4 -0.1
v 0.2 0.4 -0.1
v -0.2 0.4 -0.3
v -0.1 0.4 -0.3
v 0.2 0.4 -0.3
v 0.3 0.4 -0.3
v 2.98023e-008 0.6 0.4
v 0.2 0.6 0.4
v 2.98023e-008 0.6 0.3
v 0.2 0.6 0.3
v 2.98023e-008 0.6 -0.3
v 0.2 0.6 -0.3
v 2.98023e-008 0.6 -0.4
v 0.2 0.6 -0.4
v -0.1 0.7 0.4
v 2.98023e-008 0.7 0.4
v -0.1 0.7 0.3
v 2.98023e-008 0.7 0.3
v -0.1 0.7 -0.3
v 2.98023e-008 0.7 -0.3
v -0.1 0.7 -0.4
v 2.98023e-008 0.7 -0.4
v 2.98023e-008 1 0.5
v 0.4 1 0.5
v -0.3 1 0.4
v 2.98023e-008 1 0.4
v 0.4 1 0.4
v 0.5 1 0.4
v -0.2 1 0.3
v 0.3 1 0.3
v -0.2 1 0.2
v -0.2 1 0.1
v -0.2 1 -0.1
v -0.2 1 -0.2
v -0.2 1 -0.3
v 0.3 1 -0.3
v -0.3 1 -0.4
v 2.98023e-008 1 -0.4
v 0.4 1 -0.4
v 0.5 1 -0.4
v 2.98023e-008 1 -0.5
v 0.4 1 -0.5
v -0.1 1.4 0.5
v 2.98023e-008 1.4 0.5
v -0.1 1.4 0.4
v 2.98023e-008 1.4 0.4
v -0.1 1.4 -0.4
v 2.98023e-008 1.4 -0.4
v -0.1 1.4 -0.5
v 2.98023e-008 1.4 -0.5
v -0.2 1.5 0.5
v -0.1 1.5 0.5
v -0.2 1.5 0.4
v -0.1 1.5 0.4
v -0.2 1.5 -0.4
v -0.1 1.5 -0.4
v -0.2 1.5 -0.5
v -0.1 1.5 -0.5
v -0.2 0.1 0.3
v -0.1 0.1 0.3
v -0.2 0.1 0.1
v -0.1 0.1 0.1
v -0.2 0.1 -0.1
v -0.1 0.1 -0.1
v -0.2 0.1 -0.3
v -0.1 0.1 -0.3
v -0.1 0.9 0.4
v 0.2 0.9 0.4
v -0.1 0.9 0.3
v 0.2 0.9 0.3
v -0.1 0.9 -0.3
v 0.2 0.9 -0.3
v -0.1 0.9 -0.4
v 0.2 0.9 -0.4
v -0.2 1.6 0.5
v 0.4 1.6 0.5
v -0.2 1.6 0.4
v 0.4 1.6 0.4
v 0.5 1.6 0.4
v -0.3 1.6 0.3
v -0.2 1.6 0.3
v -0.3 1.6 0.2
v -0.2 1.6 0.2
v -0.3 1.6 -0.2
v -0.2 1.6 -0.2
v -0.3 1.6 -0.3
v -0.2 1.6 -0.3
v -0.2 1.6 -0.4
v 0.4 1.6 -0.4
v 0.5 1.6 -0.4
v -0.2 1.6 -0.5
v 0.4 1.6 -0.5
v -0.3 1.7 0.4
v 0.4 1.7 0.4
v -0.3 1.7 0.3
v -0.2 1.7 0.3
v -0.3 1.7 0.2
v -0.2 1.7 0.2
v -0.3 1.7 -0.2
v -0.2 1.7 -0.2
v -0.3 1.7 -0.3
v -0.2 1.7 -0.3
v -0.3 1.7 -0.4
v 0.4 1.7 -0.4

# faces
f 3/8/1 2/8/1 1/8/1
f 4/8/1 2/8/1 3/8/1
f 5/8/1 3/8/1 1/8/1
f 5/9/1 4/9/1 3/9/1
f 6/8/1 2/8/1 4/8/1
f 6/9/1 4/9/1 5/9/1
f 7/8/1 5/8/1 1/8/1
f 7/8/1 6/8/1 5/8/1
f 8/8/1 6/8/1 7/8/1
f 9/8/1 6/8/1 8/8/1
f 10/8/1 2/8/1 6/8/1
f 10/8/1 6/8/1 9/8/1
f 11/8/1 2/8/1 10/8/1
f 12/8/1 2/8/1 11/8/1
f 13/1/1 9/1/1 8/1/1
f 13/2/1 8/2/1 7/2/1
f 14/8/1 10/8/1 9/8/1
f 14/1/1 9/1/1 13/1/1
f 15/1/1 11/1/1 10/1/1
f 15/8/1 10/8/1 14/8/1
f 16/2/1 12/2/1 11/2/1
f 16/1/1 11/1/1 15/1/1
f 17/8/1 7/8/1 1/8/1
f 17/2/1 13/2/1 7/2/1
f 17/2/1 14/2/1 13/2/1
f 18/8/1 15/8/1 14/8/1
f 18/2/1 14/2/1 17/2/1
f 19/2/1 16/2/1 15/2/1
f 19/8/1 15/8/1 18/8/1
f 20/8/1 2/8/1 12/8/1
f 20/2/1 16/2/1 19/2/1
f 20/2/1 12/2/1 16/2/1
f 21/8/1 19/8/1 18/8/1
f 21/8/1 18/8/1 17/8/1
f 21/8/1 20/8/1 19/8/1
f 21/8/1 17/8/1 1/8/1
f 22/8/1 20/8/1 21/8/1
f 23/8/1 20/8/1 22/8/1
f 24/8/1 20/8/1 23/8/1
f 25/8/1 2/8/1 20/8/1
f 25/8/1 20/8/1 24/8/1
f 26/8/1 2/8/1 25/8/1
f 27/7/1 22/7/1 21/7/1
f 28/7/1 22/7/1 27/7/1
f 29/7/1 24/7/1 23/7/1
f 30/7/1 24/7/1 29/7/1
f 31/7/1 26/7/1 25/7/1
f 32/7/1 26/7/1 31/7/1
f 37/5/1 34/5/1 33/5/1
f 38/5/1 34/5/1 37/5/1
f 39/5/1 36/5/1 35/5/1
f 40/5/1 36/5/1 39/5/1
f 43/4/1 42/4/1 41/4/1
f 44/4/1 42/4/1 43/4/1
f 45/4/1 42/4/1 44/4/1
f 46/4/1 42/4/1 45/4/1
f 47/6/1 44/6/1 43/6/1
f 48/6/1 44/6/1 47/6/1
f 49/11/1 45/11/1 44/11/1
f 49/6/1 44/6/1 48/6/1
f 50/6/1 46/6/1 45/6/1
f 50/11/1 45/11/1 49/11/1
f 51/6/1 46/6/1 50/6/1
f 52/6/1 46/6/1 51/6/1
f 53/4/1 48/4/1 47/4/1
f 54/3/1 49/3/1 48/3/1
f 54/4/1 48/4/1 53/4/1
f 55/10/1 50/10/1 49/10/1
f 55/3/1 49/3/1 54/3/1
f 56/3/1 51/3/1 50/3/1
f 56/10/1 50/10/1 55/10/1
f 57/4/1 52/4/1 51/4/1
f 57/3/1 51/3/1 56/3/1
f 58/4/1 52/4/1 57/4/1
f 63/7/1 60/7/1 59/7/1
f 64/7/1 60/7/1 63/7/1
f 69/7/1 62/7/1 61/7/1
f 70/7/1 62/7/1 69/7/1
f 71/7/1 66/7/1 65/7/1
f 72/7/1 66/7/1 71/7/1
f 73/7/1 68/7/1 67/7/1
f 74/7/1 68/7/1 73/7/1
f 79/7/1 76/7/1 75/7/1
f 80/7/1 76/7/1 79/7/1
f 81/7/1 78/7/1 77/7/1
f 82/7/1 78/7/1 81/7/1
f 87/4/1 84/4/1 83/4/1
f 88/4/1 84/4/1 87/4/1
f 89/4/1 86/4/1 85/4/1
f 90/4/1 86/4/1 89/4/1
f 95/7/1 92/7/1 91/7/1
f 96/7/1 92/7/1 95/7/1
f 97/7/1 94/7/1 93/7/1
f 98/7/1 94/7/1 97/7/1
f 103/8/1 100/8/1 99/8/1
f 104/8/1 100/8/1 103/8/1
f 105/8/1 102/8/1 101/8/1
f 106/8/1 102/8/1 105/8/1
f 111/7/1 108/7/1 107/7/1
f 112/7/1 108/7/1 111/7/1
f 113/7/1 110/7/1 109/7/1
f 114/7/1 110/7/1 113/7/1
f 115/5/2 116/5/2 119/5/2
f 119/5/2 116/5/2 120/5/2
f 117/5/2 118/5/2 121/5/2
f 121/5/2 118/5/2 122/5/2
f 119/7/2 120/7/2 123/7/2
f 123/7/2 120/7/2 124/7/2
f 121/7/2 122/7/2 125/7/2
f 125/7/2 122/7/2 126/7/2
f 127/8/2 128/8/2 131/8/2
f 131/8/2 128/8/2 132/8/2
f 129/8/2 130/8/2 133/8/2
f 133/8/2 130/8/2 134/8/2
f 131/4/2 132/4/2 135/4/2
f 135/4/2 132/4/2 136/4/2
f 133/4/2 134/4/2 137/4/2
f 137/4/2 134/4/2 138/4/2
f 139/4/2 140/4/2 141/4/2
f 141/4/2 140/4/2 142/4/2
f 141/6/2 142/6/2 143/6/2
f 143/6/2 142/6/2 144/6/2
f 143/4/2 144/4/2 145/4/2
f 145/4/2 144/4/2 146/4/2
f 147/7/2 148/7/2 151/7/2
f 151/7/2 148/7/2 152/7/2
f 149/7/2 150/7/2 153/7/2
f 153/7/2 150/7/2 154/7/2
f 152/7/2 153/7/2 155/7/2
f 155/7/2 153/7/2 156/7/2
f 157/7/2 158/7/2 159/7/2
f 159/7/2 158/7/2 160/7/2
f 164/7/3 162/7/3 161/7/3
f 166/7/3 164/7/3 163/7/3
f 167/7/3 166/7/3 165/7/3
f 168/7/3 162/7/3 164/7/3
f 168/7/3 166/7/3 167/7/3
f 168/7/3 164/7/3 166/7/3
f 172/8/3 170/8/3 169/8/3
f 173/7/3 171/7/3 170/7/3
f 173/8/3 170/8/3 172/8/3
f 176/8/3 172/8/3 169/8/3
f 177/8/3 172/8/3 176/8/3
f 179/4/3 175/4/3 174/4/3
f 180/8/3 176/8/3 169/8/3
f 181/8/3 176/8/3 180/8/3
f 182/8/3 179/8/3 178/8/3
f 183/4/3 175/4/3 179/4/3
f 183/8/3 179/8/3 182/8/3
f 184/4/3 175/4/3 183/4/3
f 186/7/3 171/7/3 173/7/3
f 187/7/3 171/7/3 186/7/3
f 188/7/3 186/7/3 185/7/3
f 189/7/3 186/7/3 188/7/3
f 196/5/3 191/5/3 190/5/3
f 197/4/3 193/4/3 192/4/3
f 198/4/3 195/4/3 194/4/3
f 199/4/3 195/4/3 198/4/3
f 200/6/3 194/6/3 193/6/3
f 200/4/3 198/4/3 194/4/3
f 201/4/3 198/4/3 200/4/3
f 202/5/3 196/5/3 190/5/3
f 203/7/3 197/7/3 196/7/3
f 203/5/3 196/5/3 202/5/3
f 204/4/3 193/4/3 197/4/3
f 204/7/3 197/7/3 203/7/3
f 205/6/3 200/6/3 193/6/3
f 207/4/3 195/4/3 199/4/3
f 208/4/3 193/4/3 204/4/3
f 209/6/3 205/6/3 193/6/3
f 209/4/3 193/4/3 208/4/3
f 210/4/3 206/4/3 205/4/3
f 210/6/3 205/6/3 209/6/3
f 210/4/3 207/4/3 206/4/3
f 211/4/3 195/4/3 207/4/3
f 211/4/3 207/4/3 210/4/3
f 214/7/3 213/7/3 212/7/3
f 215/7/3 213/7/3 214/7/3
f 218/5/3 217/5/3 216/5/3
f 220/5/3 218/5/3 216/5/3
f 221/7/3 219/7/3 218/7/3
f 221/5/3 218/5/3 220/5/3
f 222/7/3 219/7/3 221/7/3
f 225/7/3 224/7/3 223/7/3
f 226/7/3 224/7/3 225/7/3
f 227/7/4 228/7/4 229/7/4
f 229/7/4 228/7/4 230/7/4
f 231/5/4 232/5/4 233/5/4
f 231/5/4 233/5/4 235/5/4
f 233/7/4 234/7/4 236/7/4
f 235/5/4 233/5/4 236/5/4
f 236/7/4 234/7/4 237/7/4
f 238/7/4 239/7/4 240/7/4
f 240/7/4 239/7/4 241/7/4
f 242/5/4 243/5/4 248/5/4
f 244/4/4 245/4/4 249/4/4
f 246/4/4 247/4/4 250/4/4
f 250/4/4 247/4/4 251/4/4
f 245/6/4 246/6/4 252/6/4
f 246/4/4 250/4/4 252/4/4
f 252/4/4 250/4/4 253/4/4
f 242/5/4 248/5/4 254/5/4
f 248/7/4 249/7/4 255/7/4
f 254/5/4 248/5/4 255/5/4
f 249/4/4 245/4/4 256/4/4
f 255/7/4 249/7/4 256/7/4
f 245/6/4 252/6/4 257/6/4
f 251/4/4 247/4/4 259/4/4
f 256/4/4 245/4/4 260/4/4
f 245/6/4 257/6/4 261/6/4
f 260/4/4 245/4/4 261/4/4
f 257/4/4 258/4/4 262/4/4
f 261/6/4 257/6/4 262/6/4
f 258/4/4 259/4/4 262/4/4
f 259/4/4 247/4/4 263/4/4
f 262/4/4 259/4/4 263/4/4
f 264/8/4 265/8/4 267/8/4
f 265/7/4 266/7/4 268/7/4
f 267/8/4 265/8/4 268/8/4
f 264/8/4 267/8/4 271/8/4
f 271/8/4 267/8/4 272/8/4
f 269/4/4 270/4/4 274/4/4
f 264/8/4 271/8/4 275/8/4
f 275/8/4 271/8/4 276/8/4
f 273/8/4 274/8/4 277/8/4
f 274/4/4 270/4/4 278/4/4
f 277/8/4 274/8/4 278/8/4
f 278/4/4 270/4/4 279/4/4
f 268/7/4 266/7/4 281/7/4
f 281/7/4 266/7/4 282/7/4
f 280/7/4 281/7/4 283/7/4
f 283/7/4 281/7/4 284/7/4
f 285/7/4 286/7/4 288/7/4
f 287/7/4 288/7/4 290/7/4
f 289/7/4 290/7/4 291/7/4
f 288/7/4 286/7/4 292/7/4
f 291/7/4 290/7/4 292/7/4
f 290/7/4 288/7/4 292/7/4
f 295/5/5 294/5/5 293/5/5
f 296/5/5 294/5/5 295/5/5
f 299/5/5 298/5/5 297/5/5
f 300/5/5 298/5/5 299/5/5
f 305/4/5 302/4/5 301/4/5
f 306/4/5 304/4/5 303/4/5
f 307/4/5 305/4/5 301/4/5
f 307/4/5 306/4/5 305/4/5
f 308/4/5 304/4/5 306/4/5
f 308/4/5 306/4/5 307/4/5
f 309/4/5 307/4/5 301/4/5
f 310/4/5 307/4/5 309/4/5
f 311/4/5 304/4/5 308/4/5
f 312/4/5 304/4/5 311/4/5
f 315/8/5 314/8/5 313/8/5
f 316/8/5 314/8/5 315/8/5
f 319/8/5 318/8/5 317/8/5
f 320/8/5 318/8/5 319/8/5
f 323/4/5 322/4/5 321/4/5
f 324/4/5 322/4/5 323/4/5
f 327/4/5 326/4/5 325/4/5
f 328/4/5 326/4/5 327/4/5
f 332/7/5 330/7/5 329/7/5
f 333/7/5 330/7/5 332/7/5
f 335/8/5 332/8/5 331/8/5
f 335/8/5 333/8/5 332/8/5
f 336/8/5 333/8/5 335/8/5
f 337/8/5 335/8/5 331/8/5
f 338/8/5 337/8/5 331/8/5
f 339/8/5 338/8/5 331/8/5
f 340/8/5 339/8/5 331/8/5
f 341/8/5 340/8/5 331/8/5
f 342/8/5 333/8/5 336/8/5
f 343/8/5 341/8/5 331/8/5
f 343/8/5 342/8/5 341/8/5
f 344/8/5 342/8/5 343/8/5
f 345/7/5 334/7/5 333/7/5
f 345/8/5 342/8/5 344/8/5
f 345/8/5 333/8/5 342/8/5
f 346/7/5 334/7/5 345/7/5
f 347/7/5 345/7/5 344/7/5
f 348/7/5 345/7/5 347/7/5
f 351/7/5 350/7/5 349/7/5
f 352/7/5 350/7/5 351/7/5
f 355/7/5 354/7/5 353/7/5
f 356/7/5 354/7/5 355/7/5
f 359/7/5 358/7/5 357/7/5
f 360/7/5 358/7/5 359/7/5
f 363/7/5 362/7/5 361/7/5
f 364/7/5 362/7/5 363/7/5
f 365/5/6 366/5/6 367/5/6
f 367/5/6 366/5/6 368/5/6
f 369/5/6 370/5/6 371/5/6
f 371/5/6 370/5/6 372/5/6
f 373/4/6 374/4/6 375/4/6
f 375/4/6 374/4/6 376/4/6
f 377/4/6 378/4/6 379/4/6
f 379/4/6 378/4/6 380/4/6
f 381/7/6 382/7/6 383/7/6
f 383/7/6 382/7/6 384/7/6
f 386/8/6 387/8/6 388/8/6
f 388/8/6 387/8/6 389/8/6
f 390/8/6 391/8/6 392/8/6
f 392/8/6 391/8/6 393/8/6
f 384/7/6 385/7/6 395/7/6
f 395/7/6 385/7/6 396/7/6
f 394/7/6 395/7/6 397/7/6
f 397/7/6 395/7/6 398/7/6
f 399/7/6 400/7/6 401/7/6
f 401/7/6 400/7/6 402/7/6
f 402/7/6 400/7/6 404/7/6
f 403/7/6 404/7/6 405/7/6
f 404/7/6 400/7/6 406/7/6
f 405/7/6 404/7/6 406/7/6
f 406/7/6 400/7/6 408/7/6
f 407/7/6 408/7/6 409/7/6
f 408/7/6 400/7/6 410/7/6
f 409/7/6 408/7/6 410/7/6
